<!--?xml version="1.0" encoding="utf-8"?-->
<!-- Generator: Adobe Illustrator 18.1.1, SVG Export Plug-In . SVG Version: 6.00 Build 0)  -->

<svg version="1.1" id="_x32_" xmlns="http://www.w3.org/2000/svg" xmlns:xlink="http://www.w3.org/1999/xlink" x="0px" y="0px" viewBox="0 0 512 512" style="width: 256px; height: 256px; opacity: 1;" xml:space="preserve">
<style type="text/css">
	.st0{fill:#4B4B4B;}
</style>
<g>
	<path class="st0" d="M506.966,109.675l-6.501-9.816c-3.316-5.052-7.898-8.743-12.962-10.956c-5.065-2.23-10.521-3.083-16.037-3.083
		c-6.492,0.008-13.136,1.182-19.721,2.982c-9.863,2.712-19.628,6.893-28.278,11.244c-8.65,4.359-16.155,8.878-21.426,12.367
		c-3.079,2.036-5.626,4.502-7.654,7.18c-3.547,4.696-5.482,9.883-6.842,14.884c-1.994,7.526-2.838,14.858-4.63,20.798
		c-0.874,2.973-1.947,5.55-3.323,7.72c-1.386,2.171-3.042,3.954-5.407,5.534l-6.057,4.004l3.007,4.536l-37.756,25.004
		c-4.016-35.267-10.259-67.156-18.06-93.74c-7.096-24.109-15.42-43.859-24.932-58.118c-4.794-7.147-9.879-12.925-15.543-17.14
		c-5.638-4.19-12.058-6.784-18.833-6.784c-6.779,0-13.22,2.593-18.859,6.784c-4.963,3.674-9.47,8.574-13.727,14.521
		c-7.434,10.39-14.086,24.041-20.096,40.455c-9,24.59-16.414,55.414-21.617,90.395c-5.208,34.98-8.211,74.075-8.211,115.163
		c0,4.866,0.05,9.613,0.148,14.25l-47.073,31.188l-3.008-4.528l-6.053,4.013c-1.79,1.191-3.535,1.934-5.368,2.434
		c-1.842,0.49-3.793,0.709-5.909,0.709c-4.368,0.009-9.444-0.996-14.94-2.18c-5.503-1.156-11.425-2.475-17.807-2.491
		c-3.011,0-6.129,0.312-9.258,1.149c-3.138,0.819-6.28,2.179-9.25,4.156c-8.468,5.618-21.692,15.501-33.169,27.454
		c-5.736,5.981-11.028,12.485-15.036,19.403c-1.997,3.455-3.67,7.028-4.866,10.729C0.719,403.592,0,407.428,0,411.347
		c-0.02,5.676,1.585,11.513,5.036,16.675l6.5,9.816c3.32,5.043,7.903,8.743,12.959,10.956c5.068,2.23,10.53,3.083,16.037,3.083
		c6.5-0.008,13.136-1.174,19.725-2.973c9.866-2.72,19.623-6.902,28.277-11.243c8.641-4.359,16.152-8.878,21.423-12.367
		c3.087-2.044,5.634-4.502,7.649-7.189c3.552-4.688,5.49-9.883,6.847-14.884c1.993-7.526,2.842-14.867,4.628-20.798
		c0.879-2.964,1.947-5.558,3.324-7.712c1.389-2.162,3.037-3.953,5.406-5.532l6.061-4.004l-3.003-4.536l34.089-22.58
		c3.075,44.982,10.914,78.189,22.103,101.85c7.307,15.417,16.126,26.846,26.17,34.474c10.044,7.67,21.401,11.353,32.78,11.328
		c11.353,0.025,22.706-3.658,32.754-11.303c7.552-5.736,14.382-13.608,20.405-23.678c9.06-15.112,16.316-35.183,21.406-61.058
		c5.06-25.908,7.915-57.619,7.915-96.063c0-21.432-0.824-42.296-2.348-62.316l49.282-32.641l2.999,4.528l6.06-4.013
		c1.791-1.191,3.531-1.934,5.372-2.433c1.834-0.481,3.784-0.7,5.901-0.709c4.366-0.009,9.448,0.989,14.947,2.18
		c5.499,1.148,11.421,2.475,17.803,2.491c3.003,0,6.12-0.312,9.262-1.14c3.13-0.828,6.277-2.188,9.242-4.164
		c8.468-5.61,21.7-15.501,33.172-27.454c5.727-5.989,11.028-12.476,15.032-19.403c1.998-3.455,3.674-7.02,4.87-10.729
		c1.196-3.7,1.914-7.543,1.914-11.454C512.02,120.681,510.412,114.844,506.966,109.675z M121.956,364.337
		c-3.658,4.74-5.702,9.994-7.113,15.053c-2.086,7.594-2.927,14.986-4.654,20.899c-0.844,2.957-1.871,5.516-3.176,7.61
		c-1.313,2.104-2.855,3.802-5.081,5.28c-6.386,4.232-16.877,10.424-28.244,15.425c-5.68,2.517-11.589,4.731-17.283,6.293
		c-5.686,1.563-11.155,2.458-15.873,2.45c-4.017,0-7.443-0.633-10.175-1.841c-2.732-1.234-4.861-2.932-6.712-5.694l-6.5-9.815
		c-1.867-2.855-2.593-5.541-2.615-8.65c0-2.138,0.39-4.477,1.2-6.986c1.415-4.401,4.139-9.3,7.746-14.184
		c5.411-7.349,12.756-14.673,20.016-20.916c7.256-6.26,14.449-11.497,19.51-14.858c1.647-1.073,3.244-1.757,4.95-2.222
		c1.706-0.447,3.531-0.65,5.541-0.65c4.25-0.016,9.293,0.997,14.796,2.171c5.508,1.157,11.492,2.476,17.951,2.501
		c3.13,0,6.373-0.33,9.638-1.2c1.052-0.287,2.104-0.65,3.152-1.039l5.17,7.805C123.4,362.597,122.64,363.451,121.956,364.337z
		 M210.619,112.428c6.779-23.171,14.817-41.831,23.07-54.156c4.118-6.175,8.279-10.703,12.105-13.533
		c3.848-2.829,7.163-3.919,10.217-3.919c3.05,0,6.344,1.09,10.192,3.919c3.341,2.467,6.948,6.269,10.551,11.312
		c6.323,8.801,12.616,21.414,18.284,36.982c8.54,23.357,15.809,53.328,20.886,87.54c1.478,9.858,2.767,20.046,3.827,30.537
		l-32.222,21.346c-6.898-18.644-17.19-33.409-31.517-33.409c-26.462,0-39.073,50.178-42.224,82.236L188.06,298.33
		c-0.03-1.546-0.03-3.118-0.03-4.722C188.031,223.3,196.964,158.812,210.619,112.428z M301.808,433.682
		c-6.555,13.87-14.086,23.298-21.828,29.152c-7.746,5.837-15.666,8.32-23.969,8.346c-8.329-0.026-16.244-2.51-23.995-8.346
		c-5.808-4.418-11.472-10.804-16.751-19.564c-7.869-13.152-14.74-31.694-19.586-56.412c-3.218-16.523-5.566-35.8-6.753-58.05
		l26.292-17.41c4.887,15.644,16.87,20.898,23.577,20.898h34.402c8.595,0,25.782-8.599,25.782-36.534
		c0-9.224-1.31-22.91-4.165-37.093l27.433-18.17c1.14,17.157,1.719,34.922,1.719,53.109
		C323.987,360.663,314.978,405.991,301.808,433.682z M335.247,220.276l-13.803,9.157l-28.953,19.176l-79.262,52.484l-24.785,16.439
		l-14.141,9.359l-38.778,25.68l-3.607-5.448l42.068-27.851l14.234-9.444l24.814-16.438l77.64-51.42l30.14-19.97l13.731-9.106
		l41.928-27.75l3.607,5.44L335.247,220.276z M496.263,133.336c-1.403,4.41-4.132,9.3-7.747,14.184
		c-5.402,7.349-12.742,14.664-20.007,20.924c-7.256,6.26-14.454,11.497-19.518,14.842c-1.635,1.09-3.235,1.774-4.942,2.231
		c-1.706,0.447-3.526,0.658-5.541,0.658c-4.253,0.018-9.288-1.005-14.799-2.179c-5.504-1.158-11.489-2.476-17.951-2.501
		c-3.122,0-6.374,0.33-9.643,1.2c-1.052,0.279-2.1,0.651-3.147,1.039l-5.165-7.797c0.803-0.836,1.559-1.681,2.243-2.576
		c3.657-4.731,5.701-9.985,7.116-15.045c2.082-7.603,2.918-14.994,4.646-20.907c0.849-2.957,1.871-5.508,3.176-7.603
		c1.318-2.112,2.86-3.801,5.081-5.279c6.395-4.249,16.878-10.433,28.248-15.442c5.681-2.5,11.594-4.722,17.279-6.284
		c5.685-1.563,11.159-2.458,15.873-2.45c4.02,0,7.446,0.633,10.178,1.841c2.737,1.233,4.861,2.923,6.716,5.686l6.492,9.824
		c1.875,2.855,2.598,5.55,2.622,8.65C497.474,128.487,497.078,130.827,496.263,133.336z" style="fill: rgb(75, 75, 75);"></path>
</g>
</svg>
