<!-- wave.svg -->
<svg viewBox="0 0 1440 320" xmlns="http://www.w3.org/2000/svg">
 <path fill="#007bff" fill-opacity="1" d="M0,256L40,245.3C80,235,160,213,240,186.7C320,160,400,128,480,122.7C560,117,640,139,720,165.3C800,192,880,224,960,213.3C1040,203,1120,149,1200,138.7C1280,128,1360,160,1400,176L1440,192L1440,320L1400,320C1360,320,1280,320,1200,320C1120,320,1040,320,960,320C880,320,800,320,720,320C640,320,560,320,480,320C400,320,320,320,240,320C160,320,80,320,40,320L0,320Z"></path>
</svg>
