<?xml version="1.0" encoding="utf-8"?>
<!-- Generator: Adobe Illustrator 19.2.1, SVG Export Plug-In . SVG Version: 6.00 Build 0)  -->
<svg version="1.1" id="レイヤー_1" xmlns="http://www.w3.org/2000/svg" xmlns:xlink="http://www.w3.org/1999/xlink" x="0px"
	 y="0px" viewBox="0 0 338 69.8" style="enable-background:new 0 0 338 69.8;" xml:space="preserve">
<style type="text/css">
	.st0{fill:#FCD13E;}
	.st1{fill:#DFDDD8;}
	.st2{fill:#F29600;}
	.st3{fill:#A7A8A8;}
	.st4{fill:#231815;}
	.st5{fill:#D8EDF1;}
	.st6{fill:#233273;}
</style>
<g>
	<g>
		<path class="st0" d="M18.3,60c0,0-5.3-1.6-6.3-4.3c-1.1-2.9-1.7-6.1-2.4-9c-1.3-5.1-2.5-10.3-3.5-15.5c-0.5-2.2-0.9-4.5-1.2-6.8
			c-0.3-1.7-0.7-3.5-0.5-5.3c0.2-1.5,1-2.9,1.8-4.2c1.1-1.9,2.4-3.8,3.8-5.5l0,0L6.6,7.1c-0.3-0.2-4,5.3-4.4,5.9
			c-1.3,2.2-2.6,4.8-2.1,7.5c0.2,1,0.4,2,0.6,3c0.8,3.8,1.6,7.7,2.4,11.5c0.9,4.4,1.8,8.7,2.8,13.1c0.4,1.9,0.7,4,1.2,5.9
			c0.4,1.4,0.7,3,1.4,4.2c0.7,1.2,1.9,1.9,3.1,2.6c0.9,0.5,1.9,1.1,2.9,1.6c0.3,0.2,2.8,1.4,2.9,1.2C17.5,62.3,18,61.2,18.3,60z"/>
		<path class="st1" d="M29.5,57.7c0.3-1.5,0.5-3.5,0.5-3.5S27.5,54,27.5,54c-0.2,0-0.3,2.5-0.2,2.7c0.1,0.3,0.6,0.2,0.7,0.5
			c0.2,0.6-0.5,1.4-1,1.6c-0.4,0.2-0.9,0.3-1.4,0.5c-0.4-0.2-0.9-0.4-1.3-0.6c-0.5-0.3-1.1-1.1-0.9-1.7c0.2-0.3,0.6-0.2,0.7-0.5
			c0.2-0.3,0.3-2.7,0.1-2.7c0,0-2.6-0.1-2.6-0.1s0.1,2,0.2,3.5c0.1,1.6,0.7,1.2,1.3,2.8c0.6,1.7-0.2,3.4-0.2,3.4l2.4,1.3l2.5-1
			c0,0-0.6-1.8,0.1-3.4C28.6,58.8,29.2,59.2,29.5,57.7z"/>
		<path class="st2" d="M5.6,7.6c0,0,4.3-7.3,6.6-7.6c2.3-0.3,4.5,0.8,4.5,0.8L10,10.8L5.6,7.6z"/>
		<path class="st1" d="M31.4,64.8l-12.9-5.4l-1.8,5c0,0,12.2,5.5,12.6,5.3C29.7,69.6,31.4,68.7,31.4,64.8z"/>
		<path class="st3" d="M18.2,64.8C18.2,64.8,18.2,64.8,18.2,64.8c-0.2-0.1-0.2-0.1-0.2-0.2c0.7-1.3,1.2-2.7,1.6-4.1
			c0-0.1,0.1-0.1,0.2-0.1c0.1,0,0.1,0.1,0.1,0.2c-0.4,1.4-0.9,2.8-1.6,4.1C18.3,64.8,18.3,64.8,18.2,64.8z"/>
		<path class="st3" d="M19.7,65.6C19.7,65.6,19.7,65.6,19.7,65.6c-0.2-0.1-0.2-0.1-0.2-0.2c0.7-1.3,1.2-2.7,1.6-4.1
			c0-0.1,0.1-0.1,0.2-0.1c0.1,0,0.1,0.1,0.1,0.2c-0.4,1.4-0.9,2.8-1.6,4.1C19.8,65.5,19.8,65.6,19.7,65.6z"/>
		<path class="st3" d="M21.2,66.3C21.2,66.3,21.2,66.3,21.2,66.3c-0.2-0.1-0.2-0.1-0.2-0.2c0.7-1.3,1.2-2.7,1.6-4.1
			c0-0.1,0.1-0.1,0.2-0.1c0.1,0,0.1,0.1,0.1,0.2c-0.4,1.4-0.9,2.8-1.6,4.1C21.3,66.2,21.3,66.3,21.2,66.3z"/>
		<path class="st3" d="M22.7,67C22.7,67,22.7,67,22.7,67c-0.2-0.1-0.2-0.1-0.2-0.2c0.7-1.3,1.2-2.7,1.6-4.1c0-0.1,0.1-0.1,0.2-0.1
			c0.1,0,0.1,0.1,0.1,0.2c-0.4,1.4-0.9,2.8-1.6,4.1C22.8,67,22.8,67,22.7,67z"/>
		<path class="st3" d="M24.4,67.6C24.3,67.6,24.3,67.6,24.4,67.6c-0.2-0.1-0.2-0.1-0.2-0.2c0.7-1.3,1.2-2.7,1.6-4.1
			c0-0.1,0.1-0.1,0.2-0.1c0.1,0,0.1,0.1,0.1,0.2c-0.4,1.4-0.9,2.8-1.6,4.1C24.5,67.6,24.4,67.6,24.4,67.6z"/>
		<path class="st3" d="M26.1,68.3C26.1,68.3,26,68.3,26.1,68.3c-0.2-0.1-0.2-0.1-0.2-0.2c0.7-1.3,1.2-2.7,1.6-4.1
			c0-0.1,0.1-0.1,0.2-0.1c0.1,0,0.1,0.1,0.1,0.2c-0.4,1.4-0.9,2.8-1.6,4.1C26.2,68.3,26.2,68.3,26.1,68.3z"/>
		<path class="st3" d="M27.8,69.1C27.8,69.1,27.8,69.1,27.8,69.1c-0.2-0.1-0.2-0.1-0.2-0.2c0.7-1.3,1.2-2.7,1.6-4.1
			c0-0.1,0.1-0.1,0.2-0.1c0.1,0,0.1,0.1,0.1,0.2c-0.4,1.4-0.9,2.8-1.6,4.1C27.9,69,27.9,69.1,27.8,69.1z"/>
	</g>
	<g>
		<path class="st4" d="M55.6,47.3c-15.2-3.7-17.8-9.2-17.8-9.2s-2.7,5.5-18,9c-0.2,0,0.3,2,0.4,2.3c0.6,1.6,1.5,2.4,3.3,2.3
			c2.9-0.2,5.8-0.7,8.7-0.8c0.4,0,5.4-0.1,5.4,0c0-0.1,5.1,0.1,5.4,0.1c3,0.1,5.8,0.7,8.7,0.9c1.8,0.1,2.7-0.7,3.4-2.3
			C55.2,49.3,55.8,47.3,55.6,47.3z"/>
		<path class="st4" d="M52,22.1c-2.3-0.6-7.9-0.9-14.1-0.9c-6.2,0-11.8,0.1-14.1,0.7c-2.3,0.6-3.4,4-3.4,4l17.5-0.3l17.5,0.6
			C55.3,26.2,54.2,22.7,52,22.1z"/>
		<path class="st0" d="M53.3,23.9c-5.1-0.2-10.3-0.1-15.4-0.1c-5.1,0-10.3-0.2-15.4-0.1c-7.5,0.2-10.5,9.9-9.6,16.7
			c1,7.3,7.1,8.5,12.9,8.7c2.6,0.1,5.4-0.3,7.2-2.6c0.9-1.1,1.2-2.6,1.8-3.8c0.6-1.2,1.8-2.7,3.1-3c1.3,0.3,2.4,1.8,3,3
			c0.6,1.3,0.9,2.7,1.8,3.9c1.7,2.3,4.5,2.7,7.1,2.7c5.8-0.1,11.9-1.2,13-8.5C63.7,33.9,60.8,24.2,53.3,23.9z"/>
		<path class="st4" d="M58.2,28.1c-1.3-1.6-3-2.5-5-2.6c-1.6-0.1-3.3-0.1-5.3-0.1c-1.8,0-3.6,0-5.3,0c-1.5,0-3.1,0-4.7,0
			c-1.6,0-3.2,0-4.7-0.1c-1.8,0-3.6-0.1-5.3-0.1c-2,0-3.7,0-5.3,0c-1.9,0-3.6,0.9-5,2.5c-2.4,2.8-3.7,7.9-3.1,12.4
			c0.7,5,3.9,7.1,11.3,7.3c0.1,0,0.3,0,0.4,0c2.7,0,4.4-0.6,5.4-2c1.3-1.7,3.2-9.2,6.2-9.5c3.1,0.4,4.8,7.8,6.1,9.6
			c1,1.4,2.7,2,5.4,2c0.1,0,0.3,0,0.4,0c7.4-0.1,10.7-2.2,11.4-7.1C61.7,36,60.5,30.9,58.2,28.1z"/>
		<path class="st5" d="M52.7,29.7c-1-1.3-2.2-2-3.6-2.1c-1.2,0-2.4-0.1-3.9-0.1c-1.3,0-2.6,0-3.9,0c-1.1,0-2.3,0-3.4,0
			c-1.1,0-2.3,0-3.4-0.1c-1.3,0-2.6,0-3.9-0.1c-1.5,0-2.7,0-3.9,0c-1.4,0-2.6,0.7-3.7,2c-1.8,2.3-2.7,6.4-2.3,10
			c0.2,1.9,1,3.5,2.5,4.5c3.2,2.1,7.2,1,8.9-2.7c0.7-1.4,1.5-2.7,2.4-3.9c0.8-1,2-2.6,3.2-2.7c1.3,0.2,2.4,1.8,3.2,2.8
			c0.9,1.2,1.7,2.6,2.4,4c1.7,3.7,5.6,4.8,8.9,2.8c1.5-0.9,2.3-2.6,2.5-4.4C55.3,36.1,54.4,32,52.7,29.7z"/>
		<g>
			<path class="st2" d="M60.5,34.8c0.1-0.4,0.4-0.6,0.7-0.9c0.3-0.3,1.6-1.5,1.9-0.7c0.2,0.7,0.2,1.6,0.3,2.3
				c0.1,0.9,0.1,1.7,0.1,2.6c0,0.4,0,0.8-0.1,1.2c0,0.3-0.1,0.6-0.5,0.6c-0.1,0-0.2,0-0.3,0c-0.4-0.1-0.8-0.4-1.2-0.6
				c-0.3-0.2-0.7-0.4-0.8-0.8c-0.1-1.2-0.1-2.4-0.1-3.5C60.5,34.9,60.5,34.9,60.5,34.8z"/>
			<path class="st2" d="M15,34.5c-0.1-0.4-0.4-0.6-0.7-0.9c-0.3-0.3-1.5-1.6-1.8-0.7c-0.2,0.7-0.2,1.6-0.3,2.3
				c-0.1,0.9-0.1,1.7-0.1,2.6c0,0.4,0,0.8,0,1.2c0,0.3,0.1,0.6,0.4,0.7c0.1,0,0.2,0,0.3,0c0.5-0.1,0.9-0.4,1.3-0.6
				c0.3-0.2,0.8-0.4,0.8-0.8c0.1-1.2,0.1-2.4,0.1-3.5C15,34.6,15,34.5,15,34.5z"/>
		</g>
	</g>
</g>
<g>
	<path class="st6" d="M76.5,31.6c-1.4,0-2.6,0-2.6-1.6c0-1.6,1.3-1.6,2.6-1.6h14.9c0.9,0,3.1,0,3.1,2.6c0,1.6-0.8,6.6-8.9,10.6
		c0.8,1,2.2,2.6,2.2,3.4c0,1-0.9,1.7-1.8,1.7c-0.8,0-1-0.3-2.8-2.5c-1.4-1.9-3.2-3.5-4.9-5.1c-0.3-0.3-0.6-0.6-0.6-1.2
		c0-0.8,0.6-1.8,1.8-1.8c0.7,0,1.4,0.6,3.9,3.1c2.1-0.9,4.4-2.1,6-4.1c1.2-1.5,1.5-2.7,1.5-3.1c0-0.3-0.1-0.3-0.8-0.3H76.5z"/>
	<path class="st6" d="M103,35.8c0,1.3,0,2.6-1.8,2.6c-1.8,0-1.8-1.3-1.8-2.6v-6.3c0-1.2,0-2.6,1.8-2.6c1.8,0,1.8,1.3,1.8,2.6V35.8z
		 M114.5,37c0,3.1-0.8,6.3-4.2,8.5c-2.4,1.6-5,1.9-5.7,1.9c-1,0-1.7-0.7-1.7-1.8c0-1.4,1.2-1.6,1.8-1.7c1.8-0.2,4.4-1.2,5.5-3
		c0.6-0.9,0.9-3.1,0.9-4v-7.7c0-1.3,0-2.6,1.7-2.6c1.7,0,1.7,1.3,1.7,2.6V37z"/>
	<path class="st6" d="M120,44.7c0-1.4,1.1-1.5,1.5-1.6c2.9-0.3,7.3-0.7,11.1-4.3c2.2-2.1,2.9-4.2,3.6-6.1c0.2-0.6,0.7-1,1.4-1
		c0.9,0,1.8,0.5,1.8,1.6c0,0.5-0.9,4.4-4.5,7.9c-3.7,3.6-8.7,5.3-13.3,5.3C120.4,46.4,120,45.6,120,44.7z M126.2,34.7
		c-0.7,0-0.9-0.2-2.7-1.7c-0.4-0.3-2.3-1.7-2.7-2c-0.6-0.5-0.7-1-0.7-1.3c0-1,0.7-1.8,1.7-1.8c0.5,0,0.8,0,3.2,1.9
		c3,2.2,3,2.7,3,3.3C127.9,33.5,127.4,34.7,126.2,34.7z"/>
	<path class="st6" d="M156.9,29.5c0-1.2,0-2.5,1.6-2.5s1.6,1.3,1.6,2.5v2.3h2.1c1.2,0,2.6,0,2.6,1.6c0,1.6-1.3,1.6-2.6,1.6h-2.1v1.2
		c0,2.9,0,6.7-4.3,9.4c-2.3,1.5-4.7,1.7-5.3,1.7c-1.1,0-1.7-0.7-1.7-1.8c0-1.1,0.8-1.4,1.3-1.5c3-0.7,4.6-1.1,5.8-3.1
		c0.7-1.1,1-2.6,1-4.6v-1.3h-6V37c0,1.2,0,2.5-1.6,2.5c-1.6,0-1.6-1.3-1.6-2.5v-2.2h-2.2c-1.2,0-2.6,0-2.6-1.6
		c0-1.6,1.3-1.6,2.6-1.6h2.2v-2.3c0-1.2,0-2.5,1.6-2.5c1.6,0,1.6,1.3,1.6,2.5v2.3h6V29.5z"/>
	<path class="st6" d="M183.8,35.4c1.2,0,2.4,0,2.4,1.7c0,1.7-1.2,1.7-2.4,1.7h-14.3c-1.2,0-2.4,0-2.4-1.7c0-1.7,1.2-1.7,2.4-1.7
		H183.8z"/>
	<path class="st6" d="M194.8,40.2c0,2,0,2.9,5.6,2.9c1.9,0,4.1-0.1,6-0.5c0.5-0.1,0.6-0.1,0.8-0.1c1.1,0,1.6,0.9,1.6,1.8
		c0,0.6-0.3,1.2-1.2,1.5c-0.7,0.2-3.1,0.6-7,0.6c-7.5,0-9.2-1.4-9.2-5.1V29.7c0-1.3,0-2.5,1.7-2.5s1.7,1.2,1.7,2.5v3.8
		c3.7-0.1,7.9-1.2,9.8-2.1c1.2-0.5,1.4-0.6,1.8-0.6c0.8,0,1.5,0.7,1.5,1.7c0,1-0.4,1.5-3.5,2.4c-1.9,0.6-5.2,1.5-9.6,1.7V40.2z
		 M205.2,28.6c-0.5-1.1-0.6-1.2-0.6-1.4c0-0.5,0.4-0.9,0.9-0.9c0.6,0,0.9,0.4,1.3,1.1c0.7,1.2,0.8,1.6,0.8,1.9
		c0,0.9-0.8,1.1-1.1,1.1C206.1,30.3,206,30.1,205.2,28.6z M210.6,28c0,0.9-0.7,1-1,1c-1.1,0-2.2-2.5-2.2-3c0-0.6,0.6-0.9,1-0.8
		C209.2,25.4,210.6,27.1,210.6,28z"/>
	<path class="st6" d="M217.3,30.9c-1.2,0-2.6,0-2.6-1.6s1.3-1.6,2.6-1.6h9.6c1.9,0,3.1,0.7,3.1,2.6c0,0.5-0.2,3.4-3,7.3
		c1.4,1.1,2.4,1.9,4.3,4c2.1,2.3,2.4,2.9,2.4,3.5c0,0.9-0.9,1.6-1.8,1.6c-0.7,0-0.7,0-2.3-2c-0.3-0.4-2-2.5-4.7-4.8
		c-4.2,4.4-9.2,6.7-10.4,6.7c-0.8,0-1.6-0.7-1.6-1.8s0.7-1.4,1.3-1.6c8.7-3.3,12-10.4,12-12c0-0.4-0.2-0.4-0.8-0.4H217.3z"/>
	<path class="st6" d="M263.1,31.6c6.6,0,11.9,3.7,11.9,10c0,6.6-6.4,9.8-10.5,9.8c-1.3,0-2.1-0.9-2.1-2.2c0-1.9,1.2-2.1,2.2-2.2
		c4.5-0.8,5.9-3.4,5.9-5.5c0-2-1.1-4.3-3.7-5.2c-0.4,2.5-1.9,6.3-5.8,9.9c0.2,1.1,0.2,1.2,0.2,1.4c0,1.2-1,2-2,2
		c-0.6,0-1.3-0.3-1.7-0.9c-1.7,0.9-3,1.3-4.4,1.3c-4,0-5.9-3.2-5.9-6.6c0-3.8,2.6-8.8,8.7-10.5c0-2.2,0.1-2.4,0.1-2.7
		c-1.2,0-5.1,0.1-5.8-0.2c-0.2-0.1-1.2-0.6-1.2-1.9c0-1,0.6-1.8,1.8-2c0.4-0.1,4.5-0.1,5.4-0.1c0.2-2.1,0.3-3.7,2.2-3.7
		c1.1,0,2.3,0.4,2.3,2.2c0,0.1-0.1,1.3-0.1,1.5c1.5,0,8.2-0.4,9.6-0.4c1,0,2.1,0.5,2.1,1.9c0,1.4-0.8,1.8-1.2,1.9
		c-0.9,0.3-9.8,0.6-10.9,0.7c0,0.7-0.1,1.2-0.1,1.8C260.7,31.8,261.6,31.6,263.1,31.6z M251.4,43.1c0,2,1.3,2.5,2.1,2.5
		c1.2,0,2.5-0.7,3-1c-0.2-1.3-0.5-3.9-0.6-7.6C254.6,37.6,251.4,39.3,251.4,43.1z M260.3,41.2c1.9-2.4,2.3-4.3,2.6-5.5
		c-0.3,0-0.5-0.1-1.2-0.1c-0.2,0-0.9,0-1.7,0.1C260.1,38.3,260.2,39.9,260.3,41.2z"/>
	<path class="st6" d="M298.9,26.4c1.7,0,3.5,0,3.5,2.1c0,2-2,2-3.4,2.1l-4.3,0.1l0,2.3l4.9,0c1.4,0,2,0,2.4,0.3c0.8,0.5,1,1.2,1,1.7
		c0,0.9-0.5,1.4-1,1.7c-0.4,0.3-1,0.3-2.4,0.3l-4.9,0.1l0,4c2.8,0.7,8.4,3.3,8.4,5.9c0,1.1-1,2.3-2.3,2.3c-0.8,0-0.9-0.2-2.7-1.8
		c-0.9-0.8-2.2-1.6-3.4-2c-0.2,3.3-2.7,5.5-7.1,5.5c-5.5,0-7.4-3.2-7.4-5.7c0-4.3,4.8-5.4,7.8-5.4c0.9,0,1.7,0.1,2.6,0.2l0-2.9
		l-7.5,0.1c-1.6,0-3.4,0-3.4-2c0-2,1.8-2,3.4-2l7.5-0.1l0-2.3l-6.7,0.1c-1.8,0-2.2,0-2.8-0.6c-0.4-0.4-0.6-0.9-0.6-1.5
		c0-2,1.8-2,3.4-2.1l6.7-0.1c0-2,0-2.2,0.3-2.6c0.4-0.6,1.1-0.9,1.8-0.9c2.1,0,2.1,1.9,2.1,3.5L298.9,26.4z M287.9,43.5
		c-0.1,0-3.3,0-3.3,1.7c0,1.1,1.6,1.6,2.9,1.6c1.1,0,2.9-0.4,3.1-2.8C289.9,43.7,289.1,43.5,287.9,43.5z"/>
	<path class="st6" d="M328.1,43.7c0,0.7,0,2,1.9,2c1.4,0,3-0.6,3.6-5.7c0-0.3,0.1-1.3,0.1-1.6c0.1-0.6,0.7-1.6,2.1-1.6
		c1.9,0,2.2,1.4,2.2,2.4c0,1.3-0.4,11.2-8.6,11.2c-5.5,0-5.5-4.7-5.5-6.3v-3.4c0-1.2,0-2.6-1.3-2.6c-1.2,0-5.1,1.6-7.5,7.2
		c-0.3,0.6-1.3,3.4-1.6,3.9c-0.1,0.2-0.6,1.2-2,1.2c-0.7,0-2.4-0.4-2.4-2c0-0.8,0.3-1.5,0.5-2.2l7.9-20.7c0.6-1.6,1-2.6,2.3-2.6
		c1,0,2.6,0.7,2.6,2.1c0,0.6-0.1,0.9-0.6,2.2l-3.8,9.5c2.3-2.7,5.1-2.7,5.6-2.7c4.5,0,4.5,4.4,4.5,5.7V43.7z"/>
</g>
</svg>
